<?xml version="1.0" encoding="UTF-8" standalone="no"?>
<!-- Created with Inkscape (http://www.inkscape.org/) -->

<svg
   xmlns:dc="http://purl.org/dc/elements/1.1/"
   xmlns:cc="http://creativecommons.org/ns#"
   xmlns:rdf="http://www.w3.org/1999/02/22-rdf-syntax-ns#"
   xmlns:svg="http://www.w3.org/2000/svg"
   xmlns="http://www.w3.org/2000/svg"
   xmlns:sodipodi="http://sodipodi.sourceforge.net/DTD/sodipodi-0.dtd"
   xmlns:inkscape="http://www.inkscape.org/namespaces/inkscape"
   width="151.17657mm"
   height="23.0504mm"
   viewBox="0 0 120.94126 18.440319"
   version="1.1"
   id="svg8"
   inkscape:version="0.92.3 (2405546, 2018-03-11)"
   sodipodi:docname="exposure.svg">
  <defs
     id="defs2" />
  <sodipodi:namedview
     id="base"
     pagecolor="#ffffff"
     bordercolor="#666666"
     borderopacity="1.0"
     inkscape:pageopacity="0.0"
     inkscape:pageshadow="2"
     inkscape:zoom="0.87301075"
     inkscape:cx="404.40717"
     inkscape:cy="85.553892"
     inkscape:document-units="mm"
     inkscape:current-layer="layer1"
     showgrid="false"
     inkscape:lockguides="false"
     showguides="true"
     inkscape:guide-bbox="true"
     scale-x="0.8"
     fit-margin-top="0"
     fit-margin-left="0"
     fit-margin-right="0"
     fit-margin-bottom="0"
     inkscape:window-width="1600"
     inkscape:window-height="780"
     inkscape:window-x="0"
     inkscape:window-y="27"
     inkscape:window-maximized="1">
    <sodipodi:guide
       position="66.816151,27.585671"
       orientation="0,1"
       id="guide3799"
       inkscape:locked="false" />
    <sodipodi:guide
       position="28.970789,38.81099"
       orientation="0,1"
       id="guide3809"
       inkscape:locked="false" />
  </sodipodi:namedview>
  <metadata
     id="metadata5">
    <rdf:RDF>
      <cc:Work
         rdf:about="">
        <dc:format>image/svg+xml</dc:format>
        <dc:type
           rdf:resource="http://purl.org/dc/dcmitype/StillImage" />
        <dc:title></dc:title>
      </cc:Work>
    </rdf:RDF>
  </metadata>
  <g
     inkscape:label="Layer 1"
     inkscape:groupmode="layer"
     id="layer1"
     transform="translate(-41.909086,-100.70928)">
    <path
       style="fill:#000000;stroke-width:0.35277778"
       d="m 98.878565,114.91627 v -4.23334 h 1.058333 1.058332 v 4.23334 4.23333 H 99.936898 98.878565 Z M 54.075786,104.8621 c 0,-2.21074 0.03166,-2.29305 0.881944,-2.29305 0.850285,0 0.881944,0.0823 0.881944,2.29305 0,2.21074 -0.03166,2.29306 -0.881944,2.29306 -0.850285,0 -0.881944,-0.0823 -0.881944,-2.29306 z m 9.172221,0 c 0,-2.21074 0.03166,-2.29305 0.881945,-2.29305 0.850285,0 0.881944,0.0823 0.881944,2.29305 0,2.21074 -0.03166,2.29306 -0.881944,2.29306 -0.850285,0 -0.881945,-0.0823 -0.881945,-2.29306 z m 18.344444,0 c 0,-2.21074 0.03164,-2.29305 0.881945,-2.29305 0.850286,0 0.881944,0.0823 0.881944,2.29305 0,2.21074 -0.03164,2.29306 -0.881944,2.29306 -0.850286,0 -0.881945,-0.0823 -0.881945,-2.29306 z m 8.819445,0 c 0,-2.21074 0.03164,-2.29305 0.881944,-2.29305 0.850286,0 0.881944,0.0823 0.881944,2.29305 0,2.21074 -0.03164,2.29306 -0.881944,2.29306 -0.850286,0 -0.881944,-0.0823 -0.881944,-2.29306 z m 17.286114,0 v -2.29305 h 1.05833 1.05834 v 2.29305 2.29306 h -1.05834 -1.05833 z m 8.81944,0 c 0,-2.21074 0.0316,-2.29305 0.88195,-2.29305 0.85028,0 0.88194,0.0823 0.88194,2.29305 0,2.21074 -0.0316,2.29306 -0.88194,2.29306 -0.85029,0 -0.88195,-0.0823 -0.88195,-2.29306 z m 21.16667,0 c 0,-2.21074 0.0316,-2.29305 0.88194,-2.29305 0.85029,0 0.88195,0.0823 0.88195,2.29305 0,2.21074 -0.0317,2.29306 -0.88195,2.29306 -0.85028,0 -0.88194,-0.0823 -0.88194,-2.29306 z m 8.46667,0 v -2.29305 h 1.05833 1.05833 v 2.29305 2.29306 h -1.05833 -1.05833 z"
       id="path3778"
       inkscape:connector-curvature="0"
       sodipodi:nodetypes="cccccccccsssssssssssssssssssscccccccccssssssssssccccccccc" />
    <path
       sodipodi:nodetypes="sssss"
       inkscape:connector-curvature="0"
       id="path3795"
       d="m 123.62404,114.60299 c 0,-2.21074 0.0316,-2.29305 0.88194,-2.29305 0.85029,0 0.88194,0.0823 0.88194,2.29305 0,2.21074 -0.0316,2.29306 -0.88194,2.29306 -0.85029,0 -0.88194,-0.0823 -0.88194,-2.29306 z"
       style="fill:#000000;stroke-width:0.35277778" />
    <path
       style="fill:#000000;stroke-width:0.35277778"
       d="m 117.50483,114.60299 c 0,-2.21074 0.0316,-2.29305 0.88194,-2.29305 0.85029,0 0.88194,0.0823 0.88194,2.29305 0,2.21074 -0.0316,2.29306 -0.88194,2.29306 -0.85029,0 -0.88194,-0.0823 -0.88194,-2.29306 z"
       id="path3797"
       inkscape:connector-curvature="0"
       sodipodi:nodetypes="sssss" />
    <text
       xml:space="preserve"
       style="font-style:normal;font-weight:normal;font-size:9.87777805px;line-height:1.25;font-family:sans-serif;letter-spacing:-1.58485413px;word-spacing:0px;fill:#000000;fill-opacity:1;stroke:none;stroke-width:0.26458332"
       x="41.426773"
       y="108.17406"
       id="text3803"><tspan
         sodipodi:role="line"
         id="tspan3801"
         x="41.426773"
         y="108.17406"
         style="font-size:9.87777805px;line-height:1.25;letter-spacing:-1.58485413px;stroke-width:0.26458332">-2</tspan></text>
    <text
       xml:space="preserve"
       style="font-style:normal;font-weight:normal;font-size:9.87777805px;line-height:1.25;font-family:sans-serif;letter-spacing:-1.58485413px;word-spacing:0px;fill:#000000;fill-opacity:1;stroke:none;stroke-width:0.26458332"
       x="69.083809"
       y="108.3077"
       id="text3807"><tspan
         sodipodi:role="line"
         id="tspan3805"
         x="69.083809"
         y="108.3077"
         style="font-size:9.87777805px;letter-spacing:-1.58485413px;stroke-width:0.26458332">-1</tspan></text>
    <text
       xml:space="preserve"
       style="font-style:normal;font-weight:normal;font-size:10.58333302px;line-height:1.25;font-family:sans-serif;letter-spacing:0px;word-spacing:0px;fill:#000000;fill-opacity:1;stroke:none;stroke-width:0.26458332"
       x="96.484299"
       y="108.57499"
       id="text3813"><tspan
         sodipodi:role="line"
         id="tspan3811"
         x="96.484299"
         y="108.57499"
         style="stroke-width:0.26458332">0</tspan></text>
    <text
       xml:space="preserve"
       style="font-style:normal;font-weight:normal;font-size:9.87777805px;line-height:1.25;font-family:sans-serif;letter-spacing:-1.58485413px;word-spacing:0px;fill:#000000;fill-opacity:1;stroke:none;stroke-width:0.26458332"
       x="121.21211"
       y="108.04044"
       id="text3817"><tspan
         sodipodi:role="line"
         id="tspan3815"
         x="121.21211"
         y="108.04044"
         style="font-size:9.87777805px;letter-spacing:-1.58485413px;stroke-width:0.26458332">+1</tspan></text>
    <text
       xml:space="preserve"
       style="font-style:normal;font-weight:normal;font-size:9.87777805px;line-height:1.25;font-family:sans-serif;letter-spacing:-1.58485413px;word-spacing:0px;fill:#000000;fill-opacity:1;stroke:none;stroke-width:0.26458332"
       x="150.8629"
       y="108.04044"
       id="text3821"><tspan
         sodipodi:role="line"
         id="tspan3819"
         x="150.8629"
         y="108.04044"
         style="font-size:9.87777805px;letter-spacing:-1.58485413px;stroke-width:0.26458332">+2</tspan></text>
    <path
       sodipodi:nodetypes="sssss"
       inkscape:connector-curvature="0"
       id="path3823"
       d="m 105.26638,114.60299 c 0,-2.21074 0.0316,-2.29305 0.88194,-2.29305 0.85029,0 0.88194,0.0823 0.88194,2.29305 0,2.21074 -0.0316,2.29306 -0.88194,2.29306 -0.85029,0 -0.88194,-0.0823 -0.88194,-2.29306 z"
       style="fill:#000000;stroke-width:0.35277778" />
    <path
       style="fill:#000000;stroke-width:0.35277778"
       d="m 102.20678,114.60299 c 0,-2.21074 0.0316,-2.29305 0.88194,-2.29305 0.85029,0 0.88194,0.0823 0.88194,2.29305 0,2.21074 -0.0316,2.29306 -0.88194,2.29306 -0.85029,0 -0.88194,-0.0823 -0.88194,-2.29306 z"
       id="path3825"
       inkscape:connector-curvature="0"
       sodipodi:nodetypes="sssss" />
    <path
       sodipodi:nodetypes="sssss"
       inkscape:connector-curvature="0"
       id="path3827"
       d="m 120.56444,114.60299 c 0,-2.21074 0.0316,-2.29305 0.88194,-2.29305 0.85029,0 0.88194,0.0823 0.88194,2.29305 0,2.21074 -0.0316,2.29306 -0.88194,2.29306 -0.85029,0 -0.88194,-0.0823 -0.88194,-2.29306 z"
       style="fill:#000000;stroke-width:0.35277778" />
    <path
       sodipodi:nodetypes="sssss"
       inkscape:connector-curvature="0"
       id="path3829"
       d="m 114.44522,114.60299 c 0,-2.21074 0.0316,-2.29305 0.88194,-2.29305 0.85029,0 0.88194,0.0823 0.88194,2.29305 0,2.21074 -0.0316,2.29306 -0.88194,2.29306 -0.85029,0 -0.88194,-0.0823 -0.88194,-2.29306 z"
       style="fill:#000000;stroke-width:0.35277778" />
    <path
       style="fill:#000000;stroke-width:0.35277778"
       d="m 111.38561,114.60299 c 0,-2.21074 0.0316,-2.29305 0.88194,-2.29305 0.85029,0 0.88194,0.0823 0.88194,2.29305 0,2.21074 -0.0316,2.29306 -0.88194,2.29306 -0.85029,0 -0.88194,-0.0823 -0.88194,-2.29306 z"
       id="path3831"
       inkscape:connector-curvature="0"
       sodipodi:nodetypes="sssss" />
    <path
       sodipodi:nodetypes="sssss"
       inkscape:connector-curvature="0"
       id="path3833"
       d="m 108.32599,114.60299 c 0,-2.21074 0.0316,-2.29305 0.88194,-2.29305 0.85029,0 0.88194,0.0823 0.88194,2.29305 0,2.21074 -0.0316,2.29306 -0.88194,2.29306 -0.85029,0 -0.88194,-0.0823 -0.88194,-2.29306 z"
       style="fill:#000000;stroke-width:0.35277778" />
  </g>
</svg>
